<svg xmlns="http://www.w3.org/2000/svg" viewBox="0 0 139.31 100"><defs><style>.c{fill:#5c5c60}</style><radialGradient id="a" cx="69.48" cy="64.25" r="48.74" gradientTransform="matrix(1.39 0 0 1.39 -27.38 -19.65)" gradientUnits="userSpaceOnUse"><stop offset="0" stop-color="#84d0d0"/><stop offset="1" stop-color="#6a9ad1"/></radialGradient></defs><title>Blockchain Federal Argentina</title><path fill="#e5b449" d="M69.65 53.63a14.47 14.47 0 0 0-14.47 14.48h28.95a14.48 14.48 0 0 0-14.48-14.48z"/><path fill="url(#a)" d="M1.61 68.11V55.32l22.14 12.79L45.9 55.32v12.79h1.61V54.39l22.14-12.78L91.8 54.39v13.72h1.61V54.39L104.48 48l10.27-5.93v26h1.61v-26l21.34 12.32v13.72h1.61V53.47l-23-13.25v-26.5L92.6 0 69.65 13.25 46.7 0 23 13.72v26.5L0 53.47v14.64zm91.8-65.79l21.34 12.32v24.65L93.41 27zm20.53 38.36l-10.26 5.93L92.6 53 71.26 40.68 92.6 28.36zm-43.48-26L91.8 2.32V27L70.46 39.29zm-1.61 25.54L47.51 52.54V27.89l21.34-12.32zM46.7 1.86L68 14.18 46.7 26.5 25.36 14.18zM24.56 15.57L45.9 27.89v24.65l-10.27-5.93-11.07-6.39zm-.81 26L34.83 48l10.27 5.93-21.35 12.32L2.41 53.93z"/><path d="M.09 73.53H5.6c2.66 0 4.58 1.47 4.58 4a3.68 3.68 0 0 1-2 3.39 3.79 3.79 0 0 1 2.59 3.81c0 3-2.3 4.48-5.06 4.48H.09zm5.51 6.62a2.23 2.23 0 0 0 2.32-2.39 2.16 2.16 0 0 0-2.36-2.32H2.3v4.71zm.25 7.21a2.5 2.5 0 0 0 2.7-2.68A2.56 2.56 0 0 0 5.83 82H2.3v5.38zM14.43 73.53h2.21v13.83h7.05v1.91h-9.26zM33.25 73.26a7.93 7.93 0 0 1 8.07 8 8.09 8.09 0 1 1-16.17 0 8 8 0 0 1 8.1-8zm0 14.25a6 6 0 0 0 5.8-6.22 5.82 5.82 0 1 0-11.63 0 6 6 0 0 0 5.83 6.22zM51.47 73.26a8.11 8.11 0 0 1 5.73 2.07L56.11 77a7.2 7.2 0 0 0-4.55-1.71 5.71 5.71 0 0 0-5.82 6 5.91 5.91 0 0 0 5.84 6.22 7.11 7.11 0 0 0 4.86-2.05L57.63 87a8.47 8.47 0 0 1-6.12 2.5 8.14 8.14 0 0 1 0-16.28zM61 73.53h2.21v6.62l6.32-6.62H72L65.06 81l7.21 8.23h-2.5l-6.54-7.22v7.22H61zM80.9 73.33a8 8 0 0 1 5.65 2l-.83 1.13A7.37 7.37 0 0 0 81 74.75a6.27 6.27 0 0 0-6.31 6.56c0 3.75 2.63 6.8 6.35 6.8A7.35 7.35 0 0 0 86.08 86l.92 1.11a8.36 8.36 0 0 1-6 2.43 7.89 7.89 0 0 1-8-8.21 7.77 7.77 0 0 1 7.9-8zM90.32 73.59h1.54v7.14H101v-7.14h1.54v15.68H101v-7.16h-9.1v7.16h-1.58zM114.79 84.28h-6.32l-1.78 5h-1.63l5.75-15.68h1.66l5.75 15.68h-1.63zm-3.17-9.06s-.34 1.3-.6 2l-2.1 5.69h5.4l-2.06-5.69c-.26-.73-.6-2-.6-2zM120.78 73.59h1.54v15.68h-1.54zM126.87 73.59h1.5l8 11.29c.53.78 1.29 2.12 1.29 2.12s-.13-1.29-.13-2.12V73.59h1.54v15.68h-1.49l-8-11.28c-.54-.78-1.3-2.12-1.3-2.12s.13 1.29.13 2.12v11.28h-1.54zM0 94.19h3v.5H.58v2.15h2.1v.5H.58v2.56H0zM7.88 94.19h3.22v.5H8.44v2.08h2.17v.51H8.44v2.12h2.81v.5H7.88zM16.21 94.19h1.84a2.86 2.86 0 1 1 0 5.71h-1.84zM18 99.4a2.36 2.36 0 0 0 0-4.71h-1.23v4.71zM25.91 94.19h3.22v.5h-2.66v2.08h2.17v.51h-2.17v2.12h2.8v.5h-3.36zM34.23 94.19h1.69a2.73 2.73 0 0 1 1.08.15 1.67 1.67 0 0 1-.22 3l.14.23 1.25 2.3h-.65l-1.29-2.4h-1.44v2.4h-.56zM36.15 97a1.18 1.18 0 0 0 .61-2.16 1.61 1.61 0 0 0-.81-.14h-1.16V97zM45.84 98.08h-2.3l-.65 1.82h-.59l2.09-5.71H45l2.09 5.71h-.59zm-1.15-3.3l-.22.74-.77 2.07h2l-.75-2.07a9.7 9.7 0 0 1-.22-.74zM51.71 94.19h.56v5.21h2.65v.5h-3.21zM68.29 98.08H66l-.66 1.82h-.59l2.1-5.71h.6l2.1 5.71H69zm-1.15-3.3s-.12.47-.22.74l-.76 2.07h2l-.74-2.07a9.7 9.7 0 0 1-.22-.74zM74.17 94.19h1.69a2.7 2.7 0 0 1 1.07.15 1.67 1.67 0 0 1-.22 3l.15.23 1.24 2.3h-.64l-1.29-2.4h-1.44v2.4h-.56zM76.08 97a1.06 1.06 0 0 0 1.13-1.16 1.05 1.05 0 0 0-.52-1 1.61 1.61 0 0 0-.81-.14h-1.15V97zM85.45 94.09a3.08 3.08 0 0 1 2 .67l-.3.42a2.82 2.82 0 0 0-1.71-.57 2.44 2.44 0 0 0 0 4.87 2.49 2.49 0 0 0 1.8-.84v-1h-1v-.51h1.51v2.77h-.52v-.43-.24a2.56 2.56 0 0 1-1.86.77 2.83 2.83 0 0 1-2.8-3 2.87 2.87 0 0 1 2.88-2.91zM92.8 94.19H96v.5h-2.64v2.08h2.17v.51h-2.17v2.12h2.8v.5H92.8zM101.12 94.19h.55l2.92 4.11c.19.29.47.77.47.77V94.19h.56v5.71H105l-2.92-4.11c-.19-.28-.47-.77-.47-.77V99.9h-.57zM112.21 94.69h-2v-.5h4.66v.5h-2v5.21h-.56zM119.39 94.19h.61v5.71h-.56zM125.29 94.19h.55l2.92 4.11c.19.29.47.77.47.77s-.05-.47-.05-.77v-4.11h.57v5.71h-.55l-2.92-4.11c-.19-.28-.47-.77-.47-.77V99.9h-.56zM137.92 98.08h-2.3L135 99.9h-.59l2.09-5.71h.6l2.1 5.71h-.59zm-1.16-3.3s-.12.47-.21.74l-.77 2.07h2l-.78-2.07a9.7 9.7 0 0 1-.22-.74z" class="c"/></svg>